<svg xmlns="http://www.w3.org/2000/svg" xmlns:xlink="http://www.w3.org/1999/xlink" id="a" data-name="Слой 1" width="450" height="500" viewBox="0 0 450 500">
  <defs>
    <style>
      .m {
        fill: url(#k);
      }

      .n {
        fill: url(#d);
        fill-opacity: .31;
      }

      .o {
        fill: url(#l);
        fill-opacity: .6;
      }

      .p {
        fill: url(#h);
      }

      .p, .q {
        fill-opacity: .7;
      }

      .r {
        fill: #fff;
      }

      .s {
        fill: url(#c);
        fill-opacity: .2;
      }

      .t {
        fill: url(#i);
      }

      .u {
        fill: url(#f);
      }

      .v {
        fill: url(#b);
      }

      .w {
        fill: url(#g);
        fill-opacity: .5;
      }

      .x {
        fill: url(#j);
        fill-opacity: .32;
      }

      .q {
        fill: url(#e);
      }
    </style>
    <linearGradient id="b" data-name="Безымянный градиент" x1="92.18" y1="477.48" x2="292.29" y2="214.84" gradientTransform="translate(0 502) scale(1 -1)" gradientUnits="userSpaceOnUse">
      <stop offset="0" stop-color="#00e3df"/>
      <stop offset=".41" stop-color="#0097a8"/>
      <stop offset="1" stop-color="#007791"/>
    </linearGradient>
    <radialGradient id="c" data-name="Безымянный градиент 2" cx="-777.14" cy="770.84" fx="-777.14" fy="770.84" r=".9" gradientTransform="translate(252868.13 -319393.72) rotate(-112.48) scale(256.36 -461.43) skewX(.11)" gradientUnits="userSpaceOnUse">
      <stop offset=".29" stop-color="#003b5d"/>
      <stop offset=".61" stop-color="#004a6c" stop-opacity=".69"/>
      <stop offset=".97" stop-color="#006f94" stop-opacity="0"/>
    </radialGradient>
    <radialGradient id="d" data-name="Безымянный градиент 3" cx="-785.23" cy="766.9" fx="-785.23" fy="766.9" r=".9" gradientTransform="translate(212855.73 -269057.38) rotate(-112.09) scale(216.37 -388.98) skewX(.11)" gradientUnits="userSpaceOnUse">
      <stop offset=".26" stop-color="#002a42"/>
      <stop offset=".61" stop-color="#004261" stop-opacity=".69"/>
      <stop offset=".97" stop-color="#006f94" stop-opacity="0"/>
    </radialGradient>
    <radialGradient id="e" data-name="Безымянный градиент 4" cx="-739.84" cy="872.71" fx="-739.84" fy="872.71" r=".9" gradientTransform="translate(-206024.5 21094.22) rotate(124.49) scale(181.07 -181.17) skewX(-.08)" gradientUnits="userSpaceOnUse">
      <stop offset="0" stop-color="#78edff"/>
      <stop offset="1" stop-color="#2ccfca" stop-opacity="0"/>
    </radialGradient>
    <linearGradient id="f" data-name="Безымянный градиент 5" x1="245.14" y1="331.57" x2="411.9" y2="112.7" gradientTransform="translate(0 502) scale(1 -1)" gradientUnits="userSpaceOnUse">
      <stop offset="0" stop-color="#00e3df"/>
      <stop offset=".48" stop-color="#00a2b8"/>
      <stop offset=".95" stop-color="#00637c"/>
    </linearGradient>
    <radialGradient id="g" data-name="Безымянный градиент 6" cx="-746.38" cy="743.75" fx="-746.38" fy="743.75" r=".9" gradientTransform="translate(260296.26 -45019.25) rotate(-70.77) scale(171.87 -310.04) skewX(-.1)" gradientUnits="userSpaceOnUse">
      <stop offset="0" stop-color="#003b5d"/>
      <stop offset=".49" stop-color="#004c6c" stop-opacity=".72"/>
      <stop offset=".97" stop-color="#007a86" stop-opacity="0"/>
    </radialGradient>
    <radialGradient id="h" data-name="Безымянный градиент 7" cx="-741.46" cy="888.91" fx="-741.46" fy="888.91" r=".9" gradientTransform="translate(-173675.69 16546.9) rotate(124.49) scale(150.89 -150.97) skewX(-.08)" gradientUnits="userSpaceOnUse">
      <stop offset="0" stop-color="#78edff"/>
      <stop offset="1" stop-color="#2ccfca" stop-opacity="0"/>
    </radialGradient>
    <linearGradient id="i" data-name="Безымянный градиент 8" x1="153.42" y1="214.53" x2="259.71" y2="1.97" gradientTransform="translate(0 502) scale(1 -1)" gradientUnits="userSpaceOnUse">
      <stop offset=".05" stop-color="#75fff6"/>
      <stop offset=".51" stop-color="#00c7d1"/>
      <stop offset=".96" stop-color="#0096ad"/>
    </linearGradient>
    <linearGradient id="j" data-name="Безымянный градиент 9" x1="292.44" y1="-12.27" x2="235.63" y2="67.45" gradientTransform="translate(0 502) scale(1 -1)" gradientUnits="userSpaceOnUse">
      <stop offset=".26" stop-color="#0e5a5d"/>
      <stop offset=".54" stop-color="#126c6b" stop-opacity=".69"/>
      <stop offset=".97" stop-color="#1c948a" stop-opacity="0"/>
    </linearGradient>
    <radialGradient id="k" data-name="Безымянный градиент 10" cx="-686.6" cy="804.18" fx="-686.6" fy="804.18" r=".9" gradientTransform="translate(-26208.17 332025.54) rotate(44.96) scale(314.99 -314.99) skewX(.09)" gradientUnits="userSpaceOnUse">
      <stop offset=".06" stop-color="#00b6bd"/>
      <stop offset=".89" stop-color="#00495c"/>
    </radialGradient>
    <radialGradient id="l" data-name="Безымянный градиент 11" cx="-686.07" cy="864.41" fx="-686.07" fy="864.41" r=".9" gradientTransform="translate(-153439.14 107241.64) rotate(90) scale(155.79 -177.62)" gradientUnits="userSpaceOnUse">
      <stop offset=".57" stop-color="#1e8581" stop-opacity="0"/>
      <stop offset=".97" stop-color="#1ecbe6"/>
    </radialGradient>
  </defs>
  <path class="v" d="M187.79,300c82.97,0,150.23-67.16,150.23-150S270.75,0,187.79,0,37.56,67.16,37.56,150s67.26,150,150.23,150Z"/>
  <path class="s" d="M187.79,300c82.97,0,150.23-67.16,150.23-150S270.75,0,187.79,0,37.56,67.16,37.56,150s67.26,150,150.23,150Z"/>
  <path class="n" d="M187.79,300c82.97,0,150.23-67.16,150.23-150S270.75,0,187.79,0,37.56,67.16,37.56,150s67.26,150,150.23,150Z"/>
  <path class="q" d="M187.79,300c82.97,0,150.23-67.16,150.23-150S270.75,0,187.79,0,37.56,67.16,37.56,150s67.26,150,150.23,150Z"/>
  <path class="u" d="M324.81,400c69.14,0,125.19-55.96,125.19-125s-56.05-125-125.19-125-125.19,55.96-125.19,125,56.05,125,125.19,125Z"/>
  <path class="w" d="M324.81,400c69.14,0,125.19-55.96,125.19-125s-56.05-125-125.19-125-125.19,55.96-125.19,125,56.05,125,125.19,125Z"/>
  <path class="p" d="M324.81,400c69.14,0,125.19-55.96,125.19-125s-56.05-125-125.19-125-125.19,55.96-125.19,125,56.05,125,125.19,125Z"/>
  <path class="t" d="M206.56,500c58.77,0,106.41-47.57,106.41-106.25s-47.64-106.25-106.41-106.25-106.41,47.57-106.41,106.25,47.64,106.25,106.41,106.25Z"/>
  <path class="x" d="M206.56,500c58.77,0,106.41-47.57,106.41-106.25s-47.64-106.25-106.41-106.25-106.41,47.57-106.41,106.25,47.64,106.25,106.41,106.25Z"/>
  <rect class="m" y="237.5" width="200.3" height="200" rx="40.66" ry="40.66"/>
  <rect class="o" y="237.5" width="200.3" height="200" rx="40.66" ry="40.66"/>
  <path class="r" d="M57,372.15l21.72-11.32c2.45,4.94,5.64,8.58,9.58,10.92,3.99,2.34,8.36,3.51,13.09,3.51,5.27,0,9.29-1.06,12.05-3.19,2.77-2.18,4.15-5.45,4.15-9.8,0-3.4-1.33-6.27-3.99-8.61-2.66-2.39-7.37-4.2-14.13-5.42-12.88-2.34-22.25-6.43-28.1-12.28-5.8-5.85-8.7-13.13-8.7-21.84,0-10.84,3.83-19.5,11.5-25.99,7.66-6.48,17.78-9.72,30.34-9.72,8.46,0,15.91,1.73,22.35,5.18,6.44,3.45,11.55,8.4,15.33,14.83l-21.23,10.92c-2.34-3.61-4.87-6.22-7.58-7.81-2.72-1.65-6.12-2.47-10.22-2.47-4.9,0-8.62,1.06-11.18,3.19-2.5,2.13-3.75,4.89-3.75,8.29,0,2.92,1.2,5.5,3.59,7.73,2.45,2.18,7.34,3.96,14.69,5.34,12.35,2.34,21.56,6.59,27.62,12.76,6.12,6.11,9.18,13.84,9.18,23.2,0,11.37-3.65,20.38-10.94,27.02-7.29,6.64-17.7,9.96-31.21,9.96-9.79,0-18.63-2.13-26.5-6.38-7.82-4.3-13.7-10.31-17.64-18.02Z"/>
</svg>