<?xml version="1.0" standalone="no"?>
<!DOCTYPE svg PUBLIC "-//W3C//DTD SVG 20010904//EN"
 "http://www.w3.org/TR/2001/REC-SVG-20010904/DTD/svg10.dtd">
<svg version="1.0" xmlns="http://www.w3.org/2000/svg"
 width="512.000000pt" height="512.000000pt" viewBox="0 0 512.000000 512.000000"
 preserveAspectRatio="xMidYMid meet">

<g transform="translate(0.000000,512.000000) scale(0.100000,-0.100000)"
fill="#000000" stroke="none">
<path d="M65 5111 c-11 -5 -29 -19 -40 -31 -20 -22 -20 -38 -23 -694 -3 -607
-1 -674 13 -702 9 -18 28 -37 41 -43 18 -8 353 -11 1189 -11 948 0 1165 -2
1165 -13 0 -7 -9 -53 -19 -102 -31 -143 -44 -303 -45 -540 0 -215 1 -223 31
-336 57 -214 178 -489 332 -751 l61 -105 0 -343 0 -344 -45 -114 c-99 -245
-156 -528 -159 -774 l-1 -147 28 -28 27 -28 1115 -3 1114 -2 57 21 c35 13 77
40 106 67 167 156 132 420 -70 519 -50 24 -70 27 -206 34 l-151 6 -475 160
-475 160 -5 1714 -5 1714 -27 47 c-15 25 -55 73 -88 106 -317 317 -1091 494
-2415 552 -337 14 -1007 22 -1030 11z m615 -216 c1094 -15 1973 -133 2402
-321 120 -53 196 -101 265 -167 l63 -60 2 -1748 3 -1749 30 -29 c25 -25 116
-58 565 -207 l535 -177 146 -6 c163 -7 192 -17 207 -74 11 -41 -1 -85 -33
-117 l-25 -25 -1030 -3 -1030 -2 0 42 c0 55 24 232 45 328 23 111 70 258 121
377 l45 104 -3 392 -3 392 -78 130 c-137 227 -269 516 -318 692 -17 62 -23
115 -26 254 -8 290 22 551 83 721 39 106 33 147 -26 181 -26 16 -125 17 -1219
17 l-1191 0 0 534 0 534 58 -4 c31 -2 217 -6 412 -9z"/>
</g>
</svg>
